# xmcd CD database file
#
# Track frame offsets:
#	150
#	16337
#	28825
#	45125
#	63197
#	81220
#	95170
#	111480
#	129357
#	146882
#	165805
#	181387
#	199895
#
# Disc length: 3177 seconds
#
# Revision: 0
# Processed by: cddbd v1.5.2PL0 Copyright (c) Steve Scherf et al.
# Submitted via: CDex 1.51
#
DISCID=ab0c670d
DTITLE=Moleque de rua - Final Feliz
DYEAR=2004
DGENRE=Salsa
TTITLE0=Para
TTITLE1=Marta
TTITLE2=Bom dia mon amour
TTITLE3=Sotaque
TTITLE4=Curumim de rua
TTITLE5=Mulher de malandro
TTITLE6=Mec de moleque
TTITLE7=Final feliz
TTITLE8=Esmola
TTITLE9=Preguica
TTITLE10=Garota da playboy
TTITLE11=Pimenta malagueta
TTITLE12=Favela do moleque
EXTD=YEAR: 2004
EXTT0=
EXTT1=
EXTT2=
EXTT3=
EXTT4=
EXTT5=
EXTT6=
EXTT7=
EXTT8=
EXTT9=
EXTT10=
EXTT11=
EXTT12=
PLAYORDER=
